<svg xmlns="http://www.w3.org/2000/svg" data-name="Layer 1" viewBox="0 0 48 60" x="0px" y="0px"><title>f and D</title><g><path d="M30.62,33.46a13.94,13.94,0,0,1-6.41-1.75c-4.05-2.13-4.68-4.94-4.76-6.05a3.78,3.78,0,0,1,1-3.08c1.2-2.29,2.8-3.6,4.77-3.9,2.24-.34,4.82.73,6.92,2.89,3.17,3.26,4.72,8.46,3.07,10.31A6.28,6.28,0,0,1,30.62,33.46ZM26.1,20.61a5.09,5.09,0,0,0-.55,0c-1.34.21-2.48,1.23-3.38,3l-.1.21-.2.15a1.79,1.79,0,0,0-.43,1.48c.06.78.54,2.77,3.7,4.42,4.4,2.32,7.78,1.55,8.61.62.58-.66-.18-4.67-3-7.58A7.14,7.14,0,0,0,26.1,20.61Zm-4.82,2.61h0Z"/><path d="M39.1,40.59a37.85,37.85,0,0,1-18.35-5.12c-3.74-2.34-6.11-5.31-6.86-8.58a10.53,10.53,0,0,1,1.46-8c1.92-3.05,6.17-6.09,15.54-3.28C37.3,17.53,45,26.37,46.78,30.42a4.69,4.69,0,0,1,.18,4,4.06,4.06,0,0,1-1.79,1.82,4.31,4.31,0,0,1-3.3,4.11A12.45,12.45,0,0,1,39.1,40.59Zm-15-24.1c-3.27,0-5.65,1.15-7.11,3.46a8.46,8.46,0,0,0-1.2,6.49c.63,2.75,2.69,5.28,6,7.33C28.87,38.19,38.86,39,41.38,38.4a2.5,2.5,0,0,0,1.79-2.73l-.08-.83.8-.23a2.24,2.24,0,0,0,1.27-1.07A2.88,2.88,0,0,0,45,31.22c-1.59-3.66-8.85-12-14.63-13.69A21.66,21.66,0,0,0,24.15,16.49Z"/><path d="M31.13,42.88a19.37,19.37,0,0,1-5-.64C16.68,39.69,14.69,32.54,14,27.39a1,1,0,1,1,2-.26c1,7.49,4.16,11.43,10.63,13.18,7.17,1.93,14.15-1.68,14.22-1.72a1,1,0,1,1,.94,1.77A25,25,0,0,1,31.13,42.88Z"/><path d="M9.61,33.9a7.09,7.09,0,0,1-1.75-.22,5,5,0,0,1-3.41-2.36,6.2,6.2,0,0,0-2.29-2.91L2,28.26C1.08,27.49.6,25.86.69,23.9c.12-2.43,1.38-8.75,10.34-15,4.63-3.21,8.84-4.41,12.52-3.56A9.2,9.2,0,0,1,29.5,9.74a9.67,9.67,0,0,1,1,6.33,1,1,0,1,1-1.95-.43,7.73,7.73,0,0,0-.81-4.91,7.15,7.15,0,0,0-4.65-3.4c-3.06-.7-6.85.42-10.94,3.25C3.94,16.28,2.8,21.87,2.69,24a3.87,3.87,0,0,0,.59,2.73l.18.16a8.06,8.06,0,0,1,2.87,3.75,4.1,4.1,0,0,0,2.44,1.19c1.32.21,3.42,0,5.91-2.23A1,1,0,0,1,16,31.09,9.55,9.55,0,0,1,9.61,33.9Z"/></g><text x="0" y="63" fill="#000000" font-size="5px" font-weight="bold" font-family="'Helvetica Neue', Helvetica, Arial-Unicode, Arial, Sans-serif">Created by Yo! Baba</text><text x="0" y="68" fill="#000000" font-size="5px" font-weight="bold" font-family="'Helvetica Neue', Helvetica, Arial-Unicode, Arial, Sans-serif">from the Noun Project</text></svg>