<svg xmlns="http://www.w3.org/2000/svg" xmlns:xlink="http://www.w3.org/1999/xlink" version="1.1" x="0px" y="0px" viewBox="0 0 100 125" enable-background="new 0 0 100 100" xml:space="preserve"><g><path d="M50.433,62.768v-0.764h15.243c0.539,0,1.018-0.346,1.187-0.857c0.17-0.513-0.009-1.075-0.441-1.396   c-4.778-3.546-4.468-14.406-4.464-14.516c0.002-0.062-0.022-0.115-0.029-0.175c0.822-2.012,1.859-5.873,0.123-9.929   c1.398-0.102,2.739-0.212,3.979-0.338c9.321-0.943,10.08-2.113,10.08-3.434c0-1.154,0-2.885-15.376-3.863v-5.679   c0-2.785-1.022-6.105-5.895-6.105c-1.751,0-3.723,0.4-5.628,0.788c-1.809,0.368-3.517,0.715-4.918,0.715   c-1.43,0-3.234-0.365-4.979-0.72c-1.9-0.385-3.866-0.783-5.606-0.783c-4.857,0-5.877,3.32-5.877,6.105v5.679   c-15.375,0.979-15.375,2.709-15.375,3.863c0,1.32,0.759,2.49,10.08,3.434c1.057,0.107,2.195,0.202,3.369,0.292   c-2.126,4.908-0.169,9.548,0.554,10.968C26.428,48.659,26,56.775,21.992,59.75c-0.433,0.321-0.611,0.884-0.441,1.396   c0.169,0.512,0.647,0.857,1.187,0.857h15.394v0.771c-2.842,0.167-5.546,0.906-8.023,2.107c-0.009,0.003-0.016,0.008-0.024,0.012   c-8.06,3.919-13.698,12.762-13.698,23.025c0,0.69,0.56,1.25,1.25,1.25s1.25-0.56,1.25-1.25c0-5.697,1.912-10.906,5.058-14.896   V87.92c0,0.69,0.56,1.25,1.25,1.25s1.25-0.56,1.25-1.25V70.47c0-0.038-0.019-0.07-0.021-0.107c0.909-0.824,1.885-1.56,2.914-2.203   V87.92c0,0.69,0.56,1.25,1.25,1.25s1.25-0.56,1.25-1.25V66.836c1.969-0.866,4.085-1.405,6.296-1.554v0.875   c0,3.391,2.76,6.149,6.152,6.149c3.391,0,6.149-2.759,6.149-6.149v-0.885c2.222,0.122,4.334,0.563,6.297,1.29V87.92   c0,0.69,0.56,1.25,1.25,1.25s1.25-0.56,1.25-1.25V67.688c1.034,0.547,2.017,1.175,2.938,1.884   c-0.014,0.075-0.045,0.144-0.045,0.222V87.92c0,0.69,0.56,1.25,1.25,1.25s1.25-0.56,1.25-1.25V71.797   c3.812,4.05,6.104,9.692,6.104,16.123c0,0.69,0.56,1.25,1.25,1.25s1.25-0.56,1.25-1.25C73.227,74.002,63.513,63.403,50.433,62.768z    M62.792,59.504h-9.665c3.176-2.057,5.538-5.151,6.677-8.735C60.202,53.606,61.038,56.97,62.792,59.504z M59.421,44.573   c-5.777-0.453-9.834-6.06-11.526-8.89c4.065-0.048,7.945-0.177,11.471-0.379C61.481,39.187,60.115,43.074,59.421,44.573z    M16.398,31.368c2-0.471,5.92-1.05,12.755-1.448c0.661-0.039,1.178-0.586,1.178-1.248v-6.854c0-3.002,1.292-3.605,3.377-3.605   c1.49,0,3.33,0.373,5.109,0.733c1.866,0.379,3.795,0.77,5.476,0.77c1.653,0,3.565-0.389,5.415-0.765   c1.785-0.363,3.631-0.738,5.131-0.738c2.096,0,3.395,0.604,3.395,3.605v6.854c0,0.662,0.517,1.209,1.178,1.248   c6.835,0.398,10.756,0.978,12.756,1.448c-3.858,0.899-13.765,1.839-27.884,1.839C30.163,33.207,20.257,32.268,16.398,31.368z    M40.049,35.674c-1.667,2.789-5.642,8.289-11.301,8.872c-0.105-0.163-0.246-0.295-0.416-0.396   c-0.717-1.729-1.708-5.309,0.261-8.883C32.099,35.479,35.974,35.617,40.049,35.674z M28.658,50.421   c1.095,3.731,3.502,6.961,6.781,9.083h-9.818C27.446,56.865,28.28,53.328,28.658,50.421z M47.933,66.157   c0,2.013-1.637,3.649-3.649,3.649c-2.014,0-3.652-1.637-3.652-3.649v-6.103c0-0.533-0.338-1.008-0.843-1.182   c-5.263-1.814-8.884-6.603-9.256-12.088C37.53,45.174,41.796,37.84,42.906,35.7c0.459,0.002,0.914,0.007,1.377,0.007   c0.252,0,0.498-0.003,0.749-0.004c1.146,2.207,5.632,9.901,12.995,11.205c-0.417,5.435-4.029,10.165-9.252,11.967   c-0.505,0.174-0.843,0.648-0.843,1.182V66.157z"/><path d="M90.866,69.101c-0.217-0.676-0.87-1.194-1.696-1.544c1.054-1.376,1.285-2.933,0.979-3.885   c-0.188-0.586-0.686-0.993-1.181-1.269c1.188-1.343,1.479-2.842,1.181-3.761c-0.157-0.494-0.54-0.853-0.952-1.121   c1.438-1.555,1.072-3.089,0.952-3.458c-0.193-0.606-0.719-1.019-1.23-1.295c1.207-1.417,1.56-3.074,1.23-4.094   c-0.244-0.764-1.019-1.229-1.625-1.486c-1.01-0.429-2.492-0.665-4.037-0.31c0.005-0.163,0.021-0.323,0.021-0.488   c0-3.522-2.031-7.391-3.882-7.391c-1.887,0-3.883,3.799-3.883,7.391c0,0.166,0.017,0.324,0.021,0.488   c-1.544-0.355-3.025-0.119-4.037,0.31c-0.606,0.256-1.381,0.723-1.624,1.483c-0.317,0.982,0.063,2.645,1.283,4.071   c-0.529,0.274-1.084,0.692-1.283,1.316c-0.319,0.989-0.151,2.273,0.95,3.462c-0.411,0.269-0.794,0.626-0.95,1.116   c-0.284,0.878-0.096,2.404,1.137,3.789c-0.48,0.274-0.956,0.677-1.137,1.243c-0.309,0.957-0.084,2.519,0.96,3.894   c-0.817,0.349-1.463,0.865-1.679,1.536c-0.553,1.723,1.586,5.458,4.529,6.918c1.699,0.845,3.203,1.022,4.166,1.022   c0.102,0,0.196-0.012,0.296-0.017V87.92c0,0.69,0.56,1.25,1.25,1.25s1.25-0.56,1.25-1.25V77.023   c0.102,0.004,0.199,0.017,0.303,0.017c0.959,0,2.459-0.178,4.158-1.021C89.28,74.558,91.419,70.822,90.866,69.101z M75.243,67.06   c-1.485-0.818-1.765-2.002-1.773-2.464c0.521-0.312,2.095-0.727,3.631,0.035c1.291,0.64,2.124,2.005,2.422,2.562   c0.218,0.406,0.642,0.66,1.103,0.66s0.884-0.253,1.102-0.659c0.299-0.558,1.134-1.924,2.423-2.562   c1.533-0.763,3.102-0.349,3.627-0.037c-0.015,0.467-0.313,1.648-1.81,2.468c-0.938,0.064-1.838,0.295-2.675,0.711   c-1.133,0.563-2.015,1.407-2.667,2.219c-0.652-0.812-1.534-1.655-2.668-2.219C77.108,67.351,76.196,67.119,75.243,67.06z    M73.462,54.99c0.514-0.312,2.094-0.737,3.638,0.03c1.262,0.625,2.01,1.251,2.426,2.027c0.217,0.406,0.641,0.66,1.102,0.66   s0.884-0.253,1.102-0.659c0.419-0.78,1.165-1.405,2.421-2.029c1.548-0.768,3.128-0.341,3.639-0.029   c-0.016,0.394-0.436,1.05-1.599,1.688c-0.993-0.025-2.086,0.152-3.151,0.681c-0.977,0.484-1.775,1.043-2.412,1.688   c-0.636-0.644-1.437-1.203-2.415-1.688c-1.068-0.528-2.163-0.706-3.157-0.679C73.826,56.009,73.475,55.359,73.462,54.99z    M77.1,59.599c1.185,0.587,1.978,1.279,2.425,2.116c0.218,0.406,0.641,0.66,1.103,0.66c0.461,0,0.885-0.254,1.102-0.66   c0.45-0.839,1.241-1.531,2.421-2.116c1.516-0.752,3.065-0.356,3.607-0.048c-0.06,0.406-0.441,1.364-1.89,2.159   c-0.904,0.019-1.878,0.209-2.828,0.681c-1.014,0.502-1.813,1.246-2.414,1.975c-0.6-0.728-1.398-1.472-2.414-1.974   c-0.963-0.479-1.948-0.669-2.862-0.683c-1.447-0.797-1.812-1.761-1.862-2.154C74.021,59.244,75.578,58.844,77.1,59.599z    M80.608,41.818c0.563,0.774,1.398,2.487,1.398,4.572c0,0.58-0.049,1.142-0.123,1.688c-0.465,0.322-0.89,0.676-1.26,1.065   c-0.369-0.39-0.794-0.743-1.259-1.065c-0.073-0.542-0.123-1.102-0.123-1.688C79.242,44.272,80.058,42.575,80.608,41.818z    M77.099,49.63c1.106,0.551,1.944,1.314,2.423,2.21c0.218,0.406,0.642,0.66,1.103,0.66s0.884-0.254,1.102-0.659   c0.48-0.896,1.319-1.661,2.424-2.21c1.521-0.757,3.081-0.352,3.615-0.042c-0.042,0.515-0.477,1.706-1.915,2.512   c-0.899,0.021-1.866,0.211-2.812,0.68c-1.009,0.501-1.796,1.029-2.412,1.629c-0.616-0.599-1.404-1.127-2.414-1.628   c-0.913-0.455-1.846-0.646-2.721-0.678c-1.479-0.822-1.948-2.03-2.006-2.515C74.021,49.278,75.578,48.876,77.099,49.63z    M85.224,73.779c-0.986,0.49-2.068,0.761-3.046,0.761c-0.561,0-0.942-0.087-1.165-0.159c-0.126-0.041-0.257-0.062-0.388-0.062   c-0.133,0-0.266,0.021-0.394,0.063c-0.306,0.102-0.715,0.157-1.152,0.157c-0.982,0-2.066-0.271-3.054-0.762   c-1.882-0.933-2.994-2.966-3.199-3.811c0.326-0.18,1.02-0.435,1.947-0.435c0.735,0,1.433,0.16,2.071,0.478   c1.431,0.712,2.35,2.217,2.678,2.831c0.218,0.406,0.642,0.66,1.103,0.66s0.885-0.254,1.103-0.66   c0.328-0.614,1.247-2.119,2.677-2.831c0.64-0.317,1.337-0.478,2.073-0.478c0.927,0,1.62,0.255,1.946,0.435   C88.219,70.812,87.106,72.846,85.224,73.779z"/></g><text x="0" y="115" fill="#000000" font-size="5px" font-weight="bold" font-family="'Helvetica Neue', Helvetica, Arial-Unicode, Arial, Sans-serif">Created by mungang kim</text><text x="0" y="120" fill="#000000" font-size="5px" font-weight="bold" font-family="'Helvetica Neue', Helvetica, Arial-Unicode, Arial, Sans-serif">from the Noun Project</text></svg>