<svg xmlns="http://www.w3.org/2000/svg" data-name="Layer 2" viewBox="0 0 100 125" x="0px" y="0px"><title>o_eating_utensil_set</title><path d="M93.42,30.25C93.42,20.12,87.73,6,78.47,6s-15,14.12-15,24.25c0,8,3.64,15,9,18l-1.7,37.91v.18a7.65,7.65,0,0,0,15.3,0v-.08L84.58,48.18C89.91,45.13,93.42,38.25,93.42,30.25ZM80.47,45.59l1.64,40.76a3.65,3.65,0,1,1-7.3,0l1.83-40.71C71.46,44.4,67.51,38,67.51,30.25c0-8.62,4.9-20.25,11-20.25s11,11.63,11,20.25C89.42,37.89,85.56,44.24,80.47,45.59Z"/><path d="M30.31,30.89c-.09-1.41-.18-2.82-.27-4.18l-.76-15.25c0-.12,0-.24,0-.36A5.12,5.12,0,0,0,22.1,6.44a4.52,4.52,0,0,0-3.62,0,4.82,4.82,0,0,0-4.26.14,5,5,0,0,0-6.59,4.68c0,.06,0,.11,0,.17L6.8,27.88C6.73,28.93,6.67,30,6.61,31a13,13,0,0,0,5.62,12l-1.71,42.9A7.93,7.93,0,0,0,18.21,94a7.93,7.93,0,0,0,7.68-8.14L24.36,43.1A13,13,0,0,0,30.31,30.89Zm-10,9.65,1.62,45.32A3.94,3.94,0,0,1,18.21,90a3.94,3.94,0,0,1-3.68-4.14l1.81-45.38c-3.57-1-6-4.76-5.73-9.21q.12-2.12.25-4.24h0l.81-15.65a1,1,0,1,1,1.87.08V27.14a1,1,0,1,0,2,0v-16h0s0,0,0,0a1.06,1.06,0,0,1,1-1.13,1.06,1.06,0,0,1,1,1.13s0,0,0,0h0v16a1,1,0,1,0,2,0v-16h0v0c0-.59.35-1.07.78-1.07s.78.48.78,1.07a1.48,1.48,0,0,1,0,.15V27.14a1,1,0,1,0,2,0v-16h0s0,0,0-.07a1.12,1.12,0,0,1,2.23,0,1.1,1.1,0,0,1,0,.23L26,26.91q.13,2.12.27,4.24C26.67,35.68,24.06,39.56,20.27,40.53Z"/><path d="M56.69,36.24l-.55-28L54.28,7.09A7.08,7.08,0,0,0,50.53,6C42.2,6,38.48,19.92,38.48,33.72c0,8.06,1.41,18.12,5.25,23.63L42.61,85.43v.16A8.19,8.19,0,0,0,50.53,94a8.19,8.19,0,0,0,7.92-8.41ZM50.53,90a4.2,4.2,0,0,1-3.92-4.41L47.79,56c-3.1-3.3-5.31-12-5.31-22.3,0-13.1,3.61-23.72,8.05-23.72a3.13,3.13,0,0,1,1.65.5l.5,25.82.7,19.58,1.06,29.69A4.2,4.2,0,0,1,50.53,90Z"/><text x="0" y="115" fill="#000000" font-size="5px" font-weight="bold" font-family="'Helvetica Neue', Helvetica, Arial-Unicode, Arial, Sans-serif">Created by Jae Deasigner</text><text x="0" y="120" fill="#000000" font-size="5px" font-weight="bold" font-family="'Helvetica Neue', Helvetica, Arial-Unicode, Arial, Sans-serif">from the Noun Project</text></svg>